<svg xmlns="http://www.w3.org/2000/svg" viewBox="0 0 1200 840"><rect width="1200" height="840" fill="#dce8d5"/><circle cx="1000" cy="120" r="260" fill="#c4d7ba"/><circle cx="130" cy="790" r="300" fill="#cadcc1"/><g transform="translate(365 90) rotate(-4 240 320)"><rect x="12" y="16" width="490" height="660" rx="22" fill="#29352b" opacity=".18"/><rect width="490" height="660" rx="22" fill="#f8f4e9"/><text x="48" y="65" font-family="Arial" font-size="13" letter-spacing="3" fill="#566455">NAGI — 08 MAY</text><path d="M48 100h394" stroke="#bdc8b8"/><text x="48" y="165" font-family="Georgia" font-size="34" fill="#2a3329">What made you</text><text x="48" y="205" font-family="Georgia" font-size="34" fill="#2a3329">smile today?</text><rect x="48" y="254" width="394" height="220" rx="4" fill="#d6bd8d"/><path d="M48 410l100-90 78 55 66-46 150 145H48z" fill="#849678"/><circle cx="340" cy="305" r="32" fill="#f3dd9d"/><path d="M48 520h270M48 553h350M48 586h220" stroke="#aeb8a9" stroke-width="2"/><circle cx="424" cy="603" r="20" fill="#d1dfca"/><text x="417" y="609" font-family="Arial" font-size="19" fill="#566455">+</text></g><text x="70" y="90" font-family="Arial" font-size="13" letter-spacing="4" fill="#536451">A QUIET JOURNAL</text></svg>
